<svg xmlns="http://www.w3.org/2000/svg" width="30.583" height="25.193" viewBox="0 0 30.583 25.193">
  <path id="Union_1" data-name="Union 1" d="M25.869,23.944V12.175L15.292,5.054,4.713,12.176V23.944a1.263,1.263,0,0,1-2.525,0V13.876l-.334.225C.49,15.019-.774,12.781.58,11.87l1.609-1.083V6.867a1.263,1.263,0,0,1,2.525,0v2.22L13,3.509,11.422,2.448C10.068,1.536,11.331-.7,12.7.217l2.6,1.747L17.886.217c1.365-.919,2.628,1.319,1.275,2.231L17.586,3.509l8.283,5.577V6.867a1.263,1.263,0,0,1,2.526,0v3.919L30,11.87c1.354.912.09,3.15-1.274,2.231l-.335-.225V23.944a1.263,1.263,0,0,1-2.526,0Z" transform="translate(0 0)" fill="#fff"/>
</svg>
